{"title":"The Last Heist 2016 Movies HDRip XviD AAC New +Sample ~ ☻rDX☻","uid":14964942,"size":738798344,"categoryP":"video","categoryS":"movies","magnet":"?xt=urn:btih:537f6ac1748f9d9ab520703b25a0270350aefccd&amp;dn=The+Last+Heist+2016+Movies+HDRip+XviD+AAC+New+%2BSample+%7E+%E2%98%BBrDX%E2%98%BB&amp;tr=udp%3A%2F%2Ftracker.leechers-paradise.org%3A6969&amp;tr=udp%3A%2F%2Fzer0day.ch%3A1337&amp;tr=udp%3A%2F%2Fopen.demonii.com%3A1337&amp;tr=udp%3A%2F%2Ftracker.coppersurfer.tk%3A6969&amp;tr=udp%3A%2F%2Fexodus.desync.com%3A6969","seeders":1,"leechers":2,"uploader":"basicssom","files":2,"time":1466178555,"description":"----------------------------------------------------------------\r\nThe Last Heist 2016 English Movies HDRip XviD AAC New Source with Sample ☻rDX☻\r\n\r\nSCREEN SHOTS &amp; POSTER:\r\n  \nhttp://mobileshosting.com/2016/6/creditcard/index.htm  \nhttp://mobileshosting.com/2016/6/creditcard/1.html  \nhttp://mobileshosting.com/2016/6/creditcard/2.html  \nhttp://mobileshosting.com/2016/6/creditcard/3.html  \nhttp://mobileshosting.com/2016/6/creditcard/4.html  \nhttp://mobileshosting.com/2016/6/creditcard/5.html  \nhttp://mobileshosting.com/2016/6/creditcard/6.html  \nhttp://mobileshosting.com/2016/6/creditcard/7.html  \nhttp://mobileshosting.com/2016/6/creditcard/8.html  \nhttp://mobileshosting.com/2016/6/creditcard/9.html  \nhttp://mobileshosting.com/2016/6/creditcard/10.html\r\n\r\nFormat                                   : Matroska\r\nFormat version                           : Version 4 / Version 2\r\nFile size                                : 694 MiB\r\nDuration                                 : 1h 24mn\r\nOverall bit rate                         : 1 151 Kbps\r\nMovie name                               : The Last Heist 2016 English Movies HDRip XviD AAC New Source ☻rDX☻\r\n\r\nVideo\r\nID                                       : 1\r\nFormat                                   : MPEG-4 Visual\r\nFormat profile                           : Advanced   \r\nFormat settings, BVOP                    : Yes\r\nFormat settings, QPel                    : No\r\nFormat settings, GMC                     : No warppoints\r\nFormat settings, Matrix                  : Default (H.263)\r\nCodec ID                                 : V_MS/VFW/FOURCC / XVID\r\nCodec ID/Hint                            : XviD\r\nDuration                                 : 1h 24mn\r\nBit rate                                 : 1 000 Kbps\r\nWidth                                    : 640 pixels\r\nHeight                                   : 344 pixels\r\nDisplay aspect ratio                     : 1.85:1\r\nFrame rate mode                          : Constant\r\nFrame rate                               : 23.976 fps\r\nColor space                              : YUV\r\nChroma subsampling                       : 4:2:0\r\nBit depth                                : 8 bits\r\nScan type                                : Progressive\r\nCompression mode                         : Lossy\r\nBits/(Pixel*Frame)                       : 0.190\r\nStream size                              : 603 MiB (87%)\r\nTitle                                    : ☻rDX☻\r\nWriting library                          : XviD 65\r\nDefault                                  : Yes\r\nForced                                   : No\r\n\r\nAudio\r\nID                                       : 2\r\nFormat                                   : MPEG Audio\r\nFormat version                           : Version 1\r\nFormat profile                           : Layer 3\r\nMode                                     : Joint stereo\r\nMode extension                           : MS Stereo\r\nCodec ID                                 : A_MPEG/L3\r\nCodec ID/Hint                            : MP3\r\nDuration                                 : 1h 24mn\r\nBit rate mode                            : Constant\r\nBit rate                                 : 128 Kbps\r\nChannel(s)                               : 2 channels\r\nSampling rate                            : 48.0 KHz\r\nCompression mode                         : Lossy\r\nStream size                              : 77.2 MiB (11%)\r\nTitle                                    : ☻rDX☻\r\nWriting library                          : LAME3.99r\r\nEncoding settings                        : -m j -V 4 -q 3 -lowpass 17 -b 128\r\nDefault                                  : Yes\r\nForced                                   : No\r\n\r\nIMDB \nhttp://www.imdb.com/title/tt4743562/","torrent":{"xt":"urn:btih:537f6ac1748f9d9ab520703b25a0270350aefccd","amp;dn":"The+Last+Heist+2016+Movies+HDRip+XviD+AAC+New+%2BSample+%7E+%E2%98%BBrDX%E2%98%BB","amp;tr":["udp%3A%2F%2Ftracker.leechers-paradise.org%3A6969","udp%3A%2F%2Fzer0day.ch%3A1337","udp%3A%2F%2Fopen.demonii.com%3A1337","udp%3A%2F%2Ftracker.coppersurfer.tk%3A6969","udp%3A%2F%2Fexodus.desync.com%3A6969"],"infoHash":"537f6ac1748f9d9ab520703b25a0270350aefccd","infoHashBuffer":{"type":"Buffer","data":[83,127,106,193,116,143,157,154,181,32,112,59,37,160,39,3,80,174,252,205]},"announce":[],"urlList":[]}}